<svg xmlns="http://www.w3.org/2000/svg" width="165" height="54" viewBox="0 0 165 54" fill="none"><path d="M68.4647 34.0847L68.4653 34.0841C69.7201 32.9176 70.3393 31.3285 70.3393 29.3416C70.3393 26.7047 68.2079 24.3016 64.1247 22.1088L64.1182 22.1053L64.1114 22.1023L63.9912 22.0489C62.6221 21.3075 61.7301 20.6687 61.2854 20.1355C60.8569 19.6105 60.6382 18.9596 60.6382 18.1698C60.6382 17.3051 60.9253 16.6369 61.4892 16.1424C62.0556 15.6458 62.8426 15.386 63.8746 15.386C64.6094 15.386 65.26 15.5399 65.8313 15.8434L65.8324 15.844C66.4125 16.1474 66.8498 16.5683 67.1504 17.1076L67.2747 17.3305L67.4614 17.1566L69.116 15.6151L69.2407 15.499L69.1458 15.3574C68.554 14.4747 67.8272 13.8092 66.9644 13.3679C66.1019 12.9172 65.1078 12.695 63.9877 12.695C62.1489 12.695 60.6501 13.2015 59.512 14.2316C58.3724 15.2632 57.8058 16.6202 57.8058 18.283C57.8058 19.707 58.1942 20.9003 58.9835 21.8474L58.9843 21.8483C59.7748 22.7853 61.1528 23.7286 63.0932 24.6846L63.0934 24.6847C64.717 25.4824 65.8504 26.2425 66.5136 26.9602L66.5135 26.9602L66.5154 26.9621C67.1783 27.6609 67.5069 28.4792 67.5069 29.4265C67.5069 30.6182 67.1449 31.5158 66.4418 32.1486L66.4409 32.1494C65.7432 32.7853 64.7645 33.1154 63.4786 33.1154C62.4572 33.1154 61.5622 32.8652 60.7868 32.3694C60.0231 31.8751 59.4851 31.1942 59.1697 30.3202L59.0716 30.0483L58.8517 30.236L57.1123 31.7209L57.0013 31.8157L57.0577 31.9503C57.5641 33.1578 58.3744 34.1049 59.485 34.7869L59.4857 34.7873C60.6053 35.4688 61.9056 35.8063 63.3796 35.8063C65.5085 35.8063 67.2117 35.2398 68.4647 34.0847ZM85.3261 15.7254H85.5261V15.5254V13.3334V13.1334H85.3261H72.5846H72.3846V13.3334V15.5254V15.7254H72.5846H77.5321V35.168V35.368H77.7321H80.1645H80.3645V35.168V15.7254H85.3261ZM104.023 13.4337L104.198 13.1334H103.85H101.149H101.032L100.974 13.2365L95.8153 22.5421L90.4906 13.2341L90.433 13.1334H90.317H87.6018H87.2515L87.4296 13.4351L94.3736 25.1962V35.168V35.368H94.5736H97.0059H97.2059V35.168V25.1954L104.023 13.4337ZM115.969 35.368H116.169V35.168V32.9336V32.7336H115.969H110.356V13.3334V13.1334H110.156H107.724H107.524V13.3334V35.168V35.368H107.724H115.969ZM120.125 32.4669L120.126 32.4675C122.371 34.6934 125.137 35.8063 128.412 35.8063C131.678 35.8063 134.439 34.6933 136.684 32.4675C138.929 30.2416 140.052 27.4983 140.052 24.2507C140.052 20.9666 138.94 18.2135 136.712 16.0056C134.486 13.7978 131.714 12.695 128.412 12.695C125.101 12.695 122.324 13.7977 120.097 16.0056L120.097 16.0059C117.879 18.2139 116.771 20.9669 116.771 24.2507C116.771 27.4888 117.89 30.2317 120.125 32.4669ZM163.664 35.9162L164.007 36.2649V35.776V13.3334V13.1334H163.807H161.375H161.175V13.3334V29.4052L144.604 12.585L144.261 12.2374V12.7253V35.168V35.368H144.462H146.894H147.094V35.168V19.0546L163.664 35.9162ZM134.69 17.9428C136.377 19.6478 137.22 21.746 137.22 24.2507C137.22 26.7454 136.372 28.8438 134.676 30.5586C132.99 32.2632 130.906 33.1154 128.412 33.1154C125.889 33.1154 123.796 32.2627 122.12 30.559C120.443 28.8541 119.604 26.7557 119.604 24.2507C119.604 21.8011 120.411 19.715 122.025 17.9808C123.632 16.2541 125.755 15.386 128.412 15.386C130.916 15.386 133.004 16.2384 134.69 17.9428Z" fill="#1A262F" stroke="#1A262F" stroke-width="0.4"></path><path d="M26.3757 20.1699C12.587 11.5519 21.5515 3.62023 27.93 0C25.1719 0 18.3445 1.8261 16.0357 7.75764C12.4122 17.0668 21.2028 22.7557 25.8585 24.8244C37.2385 31.4817 34.1335 41.3741 31.5474 47.063C35.1677 45.5115 46.5489 38.271 44.4802 23.2729C42.8252 11.2744 32.4128 6.5509 27.4134 5.68894L23.7931 8.79199C32.068 9.61947 35.6884 13.8603 37.2399 16.0325C43.446 24.721 40.5152 33.0993 38.2741 36.2023C37.7571 26.376 30.5131 22.7557 26.3757 20.1699Z" fill="#385068"></path><path d="M26.3757 20.1699C12.587 11.5519 21.5515 3.62023 27.93 0C25.1719 0 18.3445 1.8261 16.0357 7.75764C12.4122 17.0668 21.2028 22.7557 25.8585 24.8244C37.2385 31.4817 34.1335 41.3741 31.5474 47.063C35.1677 45.5115 46.5489 38.271 44.4802 23.2729C42.8252 11.2744 32.4128 6.5509 27.4134 5.68894L23.7931 8.79199C32.068 9.61947 35.6884 13.8603 37.2399 16.0325C43.446 24.721 40.5152 33.0993 38.2741 36.2023C37.7571 26.376 30.5131 22.7557 26.3757 20.1699Z" fill="#1A262F"></path><path d="M19.0269 33.3732C33.0287 41.6403 24.2674 49.7958 17.9823 53.5759C20.7395 53.5063 27.5186 51.5084 29.6769 45.5205C33.0643 36.1228 24.1329 30.6576 19.4264 28.7071C7.88201 22.3392 10.7363 12.3716 13.1779 6.6192C9.59803 8.26162 -1.59679 15.7871 0.849859 30.7282C2.80718 42.6811 13.3356 47.1403 18.3551 47.8757L21.8959 44.6823C13.6028 44.064 9.87644 39.9159 8.27058 37.7836C1.84711 29.2544 4.56556 20.8049 6.72761 17.6462C7.49246 27.4564 14.8255 30.8926 19.0269 33.3732Z" fill="#385068"></path><path d="M19.0269 33.3732C33.0287 41.6403 24.2674 49.7958 17.9823 53.5759C20.7395 53.5063 27.5186 51.5084 29.6769 45.5205C33.0643 36.1228 24.1329 30.6576 19.4264 28.7071C7.88201 22.3392 10.7363 12.3716 13.1779 6.6192C9.59803 8.26162 -1.59679 15.7871 0.849859 30.7282C2.80718 42.6811 13.3356 47.1403 18.3551 47.8757L21.8959 44.6823C13.6028 44.064 9.87644 39.9159 8.27058 37.7836C1.84711 29.2544 4.56556 20.8049 6.72761 17.6462C7.49246 27.4564 14.8255 30.8926 19.0269 33.3732Z" fill="#1A262F"></path></svg>